<svg id="visual" viewBox="0 0 960 540" width="960" height="540" xmlns="http://www.w3.org/2000/svg" xmlns:xlink="http://www.w3.org/1999/xlink" version="1.1"><path d="M0 60L13.3 61.8C26.7 63.7 53.3 67.3 80 70.2C106.7 73 133.3 75 160 78.7C186.7 82.3 213.3 87.7 240 90.3C266.7 93 293.3 93 320 82.2C346.7 71.3 373.3 49.7 400 46C426.7 42.3 453.3 56.7 480 65.7C506.7 74.7 533.3 78.3 560 78.3C586.7 78.3 613.3 74.7 640 66.5C666.7 58.3 693.3 45.7 720 43C746.7 40.3 773.3 47.7 800 52.2C826.7 56.7 853.3 58.3 880 53C906.7 47.7 933.3 35.3 946.7 29.2L960 23L960 0L946.7 0C933.3 0 906.7 0 880 0C853.3 0 826.7 0 800 0C773.3 0 746.7 0 720 0C693.3 0 666.7 0 640 0C613.3 0 586.7 0 560 0C533.3 0 506.7 0 480 0C453.3 0 426.7 0 400 0C373.3 0 346.7 0 320 0C293.3 0 266.7 0 240 0C213.3 0 186.7 0 160 0C133.3 0 106.7 0 80 0C53.3 0 26.7 0 13.3 0L0 0Z" fill="#ee8753"></path><path d="M0 190L13.3 181.8C26.7 173.7 53.3 157.3 80 145.7C106.7 134 133.3 127 160 130.7C186.7 134.3 213.3 148.7 240 160.3C266.7 172 293.3 181 320 172C346.7 163 373.3 136 400 133.3C426.7 130.7 453.3 152.3 480 161.3C506.7 170.3 533.3 166.7 560 164C586.7 161.3 613.3 159.7 640 146.2C666.7 132.7 693.3 107.3 720 101C746.7 94.7 773.3 107.3 800 115.5C826.7 123.7 853.3 127.3 880 126.3C906.7 125.3 933.3 119.7 946.7 116.8L960 114L960 21L946.7 27.2C933.3 33.3 906.7 45.7 880 51C853.3 56.3 826.7 54.7 800 50.2C773.3 45.7 746.7 38.3 720 41C693.3 43.7 666.7 56.3 640 64.5C613.3 72.7 586.7 76.3 560 76.3C533.3 76.3 506.7 72.7 480 63.7C453.3 54.7 426.7 40.3 400 44C373.3 47.7 346.7 69.3 320 80.2C293.3 91 266.7 91 240 88.3C213.3 85.7 186.7 80.3 160 76.7C133.3 73 106.7 71 80 68.2C53.3 65.3 26.7 61.7 13.3 59.8L0 58Z" fill="#e8733a"></path><path d="M0 255L13.3 264.8C26.7 274.7 53.3 294.3 80 299.7C106.7 305 133.3 296 160 309.5C186.7 323 213.3 359 240 367.2C266.7 375.3 293.3 355.7 320 334.2C346.7 312.7 373.3 289.3 400 283.8C426.7 278.3 453.3 290.7 480 283.3C506.7 276 533.3 249 560 240C586.7 231 613.3 240 640 246.3C666.7 252.7 693.3 256.3 720 269.8C746.7 283.3 773.3 306.7 800 319.3C826.7 332 853.3 334 880 338.5C906.7 343 933.3 350 946.7 353.5L960 357L960 112L946.7 114.8C933.3 117.7 906.7 123.3 880 124.3C853.3 125.3 826.7 121.7 800 113.5C773.3 105.3 746.7 92.7 720 99C693.3 105.3 666.7 130.7 640 144.2C613.3 157.7 586.7 159.3 560 162C533.3 164.7 506.7 168.3 480 159.3C453.3 150.3 426.7 128.7 400 131.3C373.3 134 346.7 161 320 170C293.3 179 266.7 170 240 158.3C213.3 146.7 186.7 132.3 160 128.7C133.3 125 106.7 132 80 143.7C53.3 155.3 26.7 171.7 13.3 179.8L0 188Z" fill="#e15f20"></path><path d="M0 282L13.3 300.8C26.7 319.7 53.3 357.3 80 367.2C106.7 377 133.3 359 160 363.5C186.7 368 213.3 395 240 401.3C266.7 407.7 293.3 393.3 320 370.8C346.7 348.3 373.3 317.7 400 314C426.7 310.3 453.3 333.7 480 332.8C506.7 332 533.3 307 560 301.7C586.7 296.3 613.3 310.7 640 310.7C666.7 310.7 693.3 296.3 720 309C746.7 321.7 773.3 361.3 800 382C826.7 402.7 853.3 404.3 880 402.5C906.7 400.7 933.3 395.3 946.7 392.7L960 390L960 355L946.7 351.5C933.3 348 906.7 341 880 336.5C853.3 332 826.7 330 800 317.3C773.3 304.7 746.7 281.3 720 267.8C693.3 254.3 666.7 250.7 640 244.3C613.3 238 586.7 229 560 238C533.3 247 506.7 274 480 281.3C453.3 288.7 426.7 276.3 400 281.8C373.3 287.3 346.7 310.7 320 332.2C293.3 353.7 266.7 373.3 240 365.2C213.3 357 186.7 321 160 307.5C133.3 294 106.7 303 80 297.7C53.3 292.3 26.7 272.7 13.3 262.8L0 253Z" fill="#d14f11"></path><path d="M0 433L13.3 444.7C26.7 456.3 53.3 479.7 80 481.5C106.7 483.3 133.3 463.7 160 464.7C186.7 465.7 213.3 487.3 240 495.3C266.7 503.3 293.3 497.7 320 496.7C346.7 495.7 373.3 499.3 400 503C426.7 506.7 453.3 510.3 480 500.5C506.7 490.7 533.3 467.3 560 463.7C586.7 460 613.3 476 640 479.5C666.7 483 693.3 474 720 475.8C746.7 477.7 773.3 490.3 800 490.3C826.7 490.3 853.3 477.7 880 472.3C906.7 467 933.3 469 946.7 470L960 471L960 388L946.7 390.7C933.3 393.3 906.7 398.7 880 400.5C853.3 402.3 826.7 400.7 800 380C773.3 359.3 746.7 319.7 720 307C693.3 294.3 666.7 308.7 640 308.7C613.3 308.7 586.7 294.3 560 299.7C533.3 305 506.7 330 480 330.8C453.3 331.7 426.7 308.3 400 312C373.3 315.7 346.7 346.3 320 368.8C293.3 391.3 266.7 405.7 240 399.3C213.3 393 186.7 366 160 361.5C133.3 357 106.7 375 80 365.2C53.3 355.3 26.7 317.7 13.3 298.8L0 280Z" fill="#b94612"></path><path d="M0 541L13.3 541C26.7 541 53.3 541 80 541C106.7 541 133.3 541 160 541C186.7 541 213.3 541 240 541C266.7 541 293.3 541 320 541C346.7 541 373.3 541 400 541C426.7 541 453.3 541 480 541C506.7 541 533.3 541 560 541C586.7 541 613.3 541 640 541C666.7 541 693.3 541 720 541C746.7 541 773.3 541 800 541C826.7 541 853.3 541 880 541C906.7 541 933.3 541 946.7 541L960 541L960 469L946.7 468C933.3 467 906.7 465 880 470.3C853.3 475.7 826.7 488.3 800 488.3C773.3 488.3 746.7 475.7 720 473.8C693.3 472 666.7 481 640 477.5C613.3 474 586.7 458 560 461.7C533.3 465.3 506.7 488.7 480 498.5C453.3 508.3 426.7 504.7 400 501C373.3 497.3 346.7 493.7 320 494.7C293.3 495.7 266.7 501.3 240 493.3C213.3 485.3 186.7 463.7 160 462.7C133.3 461.7 106.7 481.3 80 479.5C53.3 477.7 26.7 454.3 13.3 442.7L0 431Z" fill="#a23d12"></path></svg>